HIERARCHY
ROOT hip
{
	OFFSET 0.000000 0.000000 0.000000 
	CHANNELS 6 Xposition Yposition Zposition Xrotation Zrotation Yrotation
	JOINT abdomen
	{
		OFFSET 0.000000 3.402643 0.000000 
		CHANNELS 3 Xrotation Zrotation Yrotation
		JOINT chest
		{
			OFFSET 0.000000 8.438565 -0.680529 
			CHANNELS 3 Xrotation Zrotation Yrotation
			JOINT neck
			{
				OFFSET 0.000000 10.207942 -0.272212 
				CHANNELS 3 Xrotation Zrotation Yrotation
				JOINT head
				{
					OFFSET 0.000000 3.130431 0.000000 
					CHANNELS 3 Xrotation Zrotation Yrotation
					End Site
					{
						OFFSET 0.000000 3.130435 0.000000 
					}
				}
			}
			JOINT lCollar
			{
				OFFSET 3.470700 6.669187 -0.816635 
				CHANNELS 3 Zrotation Yrotation Xrotation
				JOINT lShldr
				{
					OFFSET 3.198488 0.000000 0.000000 
					CHANNELS 3 Zrotation Yrotation Xrotation
					JOINT lForeArm
					{
						OFFSET 10.139888 0.000000 0.000000 
						CHANNELS 3 Yrotation Zrotation Xrotation
						JOINT lHand
						{
							OFFSET 8.370511 0.000000 0.000000 
							CHANNELS 3 Zrotation Yrotation Xrotation
							End Site
							{
								OFFSET 4.083176 0.000000 0.000000 
							}
						}
					}
				}
			}
			JOINT rCollar
			{
				OFFSET -3.470700 6.669187 -0.816635 
				CHANNELS 3 Zrotation Yrotation Xrotation
				JOINT rShldr
				{
					OFFSET -3.198488 0.000000 0.000000 
					CHANNELS 3 Zrotation Yrotation Xrotation
					JOINT rForeArm
					{
						OFFSET -10.139888 0.000000 0.000000 
						CHANNELS 3 Yrotation Zrotation Xrotation
						JOINT rHand
						{
							OFFSET -8.370511 0.000000 0.000000 
							CHANNELS 3 Zrotation Yrotation Xrotation
							End Site
							{
								OFFSET -4.083176 0.000000 0.000000 
							}
						}
					}
				}
			}
		}
	}
	JOINT lThigh
	{
		OFFSET 5.308129 -1.633274 1.361059 
		CHANNELS 3 Xrotation Zrotation Yrotation
		JOINT lShin
		{
			OFFSET -2.041588 -20.007561 0.000000 
			CHANNELS 3 Xrotation Zrotation Yrotation
			JOINT lFoot
			{
				OFFSET 0.000000 -19.190928 -1.224953 
				CHANNELS 3 Xrotation Yrotation Zrotation
				End Site
				{
					OFFSET 0.000000 -2.449906 4.627600 
				}
			}
		}
	}
	JOINT rThigh
	{
		OFFSET -5.308129 -1.633274 1.361059 
		CHANNELS 3 Xrotation Zrotation Yrotation
		JOINT rShin
		{
			OFFSET 2.041588 -20.007561 0.000000 
			CHANNELS 3 Xrotation Zrotation Yrotation
			JOINT rFoot
			{
				OFFSET 0.000000 -19.190928 -1.224953 
				CHANNELS 3 Xrotation Yrotation Zrotation
				End Site
				{
					OFFSET 0.000000 -2.449906 4.627600 
				}
			}
		}
	}
}
MOTION
Frames: 13
Frame Time: 0.016667
-7.061330 29.286448 -12.836220 -3.633544 -7.226820 2.953076 35.603661 19.791355 3.636369 3.234008 -3.679828 3.118423 -6.145884 -2.360946 0.258423 10.145826 -6.211835 7.809740 -14.848078 -14.602493 3.067272 -67.363403 5.752234 -22.129639 -65.900650 -2.081711 0.216465 7.248893 -18.141781 -45.000000 5.923297 21.671350 1.886881 59.406239 16.537714 11.028399 72.292023 5.000000 11.776432 3.485663 -9.159637 -24.561897 -81.131241 22.128553 -12.432081 123.319969 2.240735 -3.216344 -33.169483 1.505068 -9.385089 1.134260 5.378556 -26.688128 109.408829 -7.109166 16.382860 -18.114717 -20.067083 8.398405 
-7.058856 29.289118 -12.833708 -3.629832 -7.303173 3.198951 35.571800 19.965393 3.421205 3.242828 -3.670027 3.147681 -6.273425 -2.486470 0.277407 10.104953 -6.097288 7.699810 -14.880231 -14.629241 3.080423 -67.356995 5.762253 -22.211229 -65.988937 -2.044623 0.206806 7.224890 -18.100000 -45.000000 5.991437 21.632601 1.903020 59.357132 16.597118 11.086507 72.349686 5.000000 11.758117 3.497036 -9.176208 -24.584044 -81.232399 21.922857 -12.547288 123.307320 2.238925 -3.294103 -33.023499 1.609063 -9.291398 1.174457 5.434204 -26.943909 109.348351 -7.112086 16.415842 -18.130514 -20.030577 8.280725 
-7.058742 29.291904 -12.831306 -3.635962 -7.369606 3.446069 35.535336 20.137405 3.183502 3.272436 -3.660267 3.167214 -6.410674 -2.592682 0.293469 10.080573 -6.002019 7.589917 -14.902985 -14.665939 3.096534 -67.347595 5.764882 -22.274996 -66.087646 -1.992965 0.175717 7.155413 -18.057623 -45.000000 6.050028 21.593798 1.919620 59.308029 16.656517 11.144615 72.391594 5.000000 11.728928 3.510911 -9.159203 -24.585701 -81.322128 21.747236 -12.585718 123.275055 2.277820 -3.326427 -32.930866 1.636420 -9.233305 1.201954 5.495957 -27.180639 109.288742 -7.082276 16.450760 -18.090149 -20.152719 8.136640 
-7.061346 29.294857 -12.829332 -3.641408 -7.416381 3.691937 35.481846 20.271080 2.954473 3.302358 -3.660287 3.196531 -6.538083 -2.679582 0.306610 10.072537 -5.935861 7.471354 -14.905618 -14.703688 3.106251 -67.342720 5.752699 -22.312054 -66.177338 -1.927389 0.120195 7.045365 -17.994015 -45.000000 6.118176 21.555050 1.935757 59.239841 16.735737 11.192769 72.430611 5.000000 11.676162 3.510292 -9.126833 -24.547512 -81.413673 21.552328 -12.617629 123.271744 2.318802 -3.366600 -32.835274 1.602931 -9.186738 1.245055 5.529059 -27.399042 109.219063 -7.052514 16.495365 -18.067467 -20.118917 8.103265 
-7.064306 29.297474 -12.825091 -3.655754 -7.463079 3.929383 35.441940 20.417692 2.743646 3.322821 -3.650546 3.216083 -6.655746 -2.766482 0.319751 10.072983 -5.869512 7.362507 -14.918328 -14.740906 3.117949 -67.339523 5.753241 -22.355219 -66.266678 -1.868952 0.075715 6.944156 -17.941057 -45.000000 6.176729 21.526020 1.952389 59.191082 16.804893 11.241103 72.454063 5.000000 11.630343 3.507947 -9.106206 -24.528458 -81.483124 21.356041 -12.634917 123.229698 2.369955 -3.386467 -32.712547 1.602404 -9.126019 1.283002 5.579905 -27.616053 109.140091 -7.013072 16.526957 -18.019426 -20.195257 8.021881 
-7.067259 29.299582 -12.817593 -3.693936 -7.500254 4.126837 35.433872 20.509365 2.548969 3.322816 -3.631004 3.225831 -6.724713 -2.872694 0.335810 10.047343 -5.783858 7.243956 -14.951856 -14.786489 3.138557 -67.319977 5.782954 -22.397760 -66.335197 -1.790982 0.071044 6.919872 -17.881496 -45.000000 6.216075 21.516409 1.970013 59.151596 16.854382 11.299302 72.482468 5.000000 11.586606 3.465492 -9.135947 -24.510990 -81.506599 21.210243 -12.677348 123.236420 2.377063 -3.459224 -32.682842 1.671429 -9.026230 1.379988 5.619328 -27.779045 109.071838 -6.983838 16.524427 -18.031700 -20.164017 7.971420 
-7.069739 29.301149 -12.806820 -3.741405 -7.527584 4.324294 35.420563 20.594873 2.364614 3.322818 -3.611463 3.225815 -6.793712 -2.978904 0.351868 10.032326 -5.688446 7.124444 -14.986077 -14.841489 3.159166 -67.301994 5.816421 -22.449188 -66.403511 -1.721163 0.073612 6.902792 -17.814289 -45.000000 6.274533 21.506914 1.986715 59.121933 16.893950 11.347830 72.498070 5.000000 11.554122 3.418120 -9.178606 -24.494932 -81.502899 21.092484 -12.685047 123.203690 2.409170 -3.513158 -32.688126 1.675844 -8.952647 1.439844 5.656183 -27.946154 108.993484 -6.954457 16.531939 -17.978477 -20.117142 7.942418 
-7.069780 29.301941 -12.792409 -3.782595 -7.555316 4.472067 35.406300 20.654089 2.212273 3.313061 -3.591922 3.225798 -6.833382 -3.075460 0.366466 10.020200 -5.621684 7.035073 -15.039136 -14.876523 3.181450 -67.273323 5.840943 -22.494482 -66.452652 -1.664284 0.063450 6.851145 -17.779692 -45.000000 6.323927 21.507099 2.013666 59.091976 16.904209 11.386615 72.513580 5.000000 11.543991 3.357618 -9.216399 -24.474266 -81.521698 20.976404 -12.720135 123.232048 2.416657 -3.530591 -32.640881 1.685642 -8.932922 1.535615 5.697789 -28.069717 108.935066 -6.934937 16.524994 -17.991066 -20.100887 7.879846 
-7.067468 29.301903 -12.774442 -3.808181 -7.573667 4.579831 35.374557 20.682493 2.103303 3.304233 -3.562641 3.225801 -6.853480 -3.162360 0.379602 10.021924 -5.583732 6.966097 -15.111012 -14.891582 3.200391 -67.235626 5.869261 -22.538755 -66.463287 -1.602410 0.032827 6.783900 -17.751040 -45.000000 6.382186 21.536669 2.030512 59.042648 16.904980 11.402866 72.510864 5.000000 11.578215 3.284651 -9.238751 -24.482681 -81.494972 20.916883 -12.679658 123.247993 2.473305 -3.563301 -32.643913 1.732270 -8.909623 1.614368 5.706307 -28.168720 108.866867 -6.935044 16.511162 -17.937906 -20.069304 7.841838 
-7.064050 29.301708 -12.752972 -3.832536 -7.592091 4.679204 35.348019 20.696949 1.998456 3.295092 -3.543119 3.235569 -6.873466 -3.229949 0.389819 10.023327 -5.555570 6.887402 -15.174189 -14.926012 3.222300 -67.197960 5.897646 -22.584003 -66.483551 -1.559220 0.006721 6.715854 -17.732199 -45.000000 6.441033 21.556442 2.057076 58.993156 16.895985 11.421965 72.505638 5.000000 11.617957 3.208511 -9.262233 -24.470278 -81.489304 20.868631 -12.657870 123.273903 2.523561 -3.598463 -32.635258 1.745006 -8.899635 1.680623 5.739645 -28.237183 108.818573 -6.915669 16.492798 -17.894369 -20.103285 7.759999 
-7.060063 29.301432 -12.727839 -3.857590 -7.611238 4.709532 35.310944 20.694202 1.960784 3.303964 -3.533320 3.255064 -6.883430 -3.258915 0.394198 10.044287 -5.566738 6.760107 -15.238764 -14.979250 3.251758 -67.155769 5.923085 -22.661476 -66.503082 -1.559205 0.006754 6.700493 -17.706055 -45.000000 6.488807 21.556730 2.054770 58.944389 16.896719 11.411764 72.492416 5.000000 11.641807 3.088139 -9.284092 -24.451887 -81.406715 20.858492 -12.636637 123.301140 2.541975 -3.633644 -32.747402 1.794982 -8.852296 1.771156 5.762797 -28.206327 108.759895 -6.876578 16.502207 -17.933212 -20.056282 7.713447 
-7.055446 29.301323 -12.700201 -3.890624 -7.640328 4.719210 35.281971 20.680744 1.941534 3.322608 -3.523520 3.274559 -6.883497 -3.268570 0.395657 10.066246 -5.577995 6.623094 -15.314160 -15.041303 3.285857 -67.115143 5.943411 -22.752617 -66.532280 -1.558393 0.010115 6.681244 -17.690809 -45.000000 6.557412 21.537510 2.080729 58.875843 16.897762 11.411150 72.494698 5.000000 11.652366 2.956249 -9.300558 -24.440180 -81.366302 20.868752 -12.654171 123.347763 2.541829 -3.693921 -32.819427 1.831124 -8.814445 1.848709 5.783109 -28.167027 108.701248 -6.837492 16.511488 -17.929735 -20.002949 7.699145 
-7.050742 29.302572 -12.672531 -3.922856 -7.659687 4.728886 35.262150 20.664560 1.930242 3.332975 -3.523539 3.264812 -6.874068 -3.316848 0.402954 10.088896 -5.549982 6.524013 -15.397601 -15.074484 3.312110 -67.076248 5.967635 -22.852604 -66.571426 -1.568903 0.007451 6.654993 -17.649776 -45.000000 6.626348 21.557316 2.116587 58.807190 16.869488 11.391033 72.486305 5.000000 11.676583 2.801471 -9.294871 -24.416393 -81.249504 20.877867 -12.621262 123.365700 2.576668 -3.699151 -32.980392 1.923265 -8.782055 1.953468 5.819335 -28.142889 108.642586 -6.808067 16.517300 -17.907621 -20.004730 7.670831 
